<svg width="17" height="18" viewBox="0 0 17 18" fill="none" xmlns="http://www.w3.org/2000/svg">
<path d="M8.5 0.19043C6.24599 0.19149 4.08459 1.08736 2.49076 2.68119C0.896933 4.27502 0.00105996 6.43641 0 8.69043C0 13.3824 3.808 17.1904 8.5 17.1904C13.192 17.1904 17 13.3824 17 8.69043C17 3.99843 13.192 0.19043 8.5 0.19043ZM8.5 0.59643C12.975 0.59643 16.6 4.21543 16.6 8.69043C16.6 13.1654 12.975 16.7904 8.5 16.7904C7.43622 16.7907 6.38281 16.5814 5.39995 16.1744C4.4171 15.7674 3.52406 15.1708 2.77185 14.4186C2.01964 13.6664 1.42301 12.7733 1.01604 11.7905C0.609071 10.8076 0.399737 9.75421 0.4 8.69043C0.399868 7.62697 0.609335 6.57391 1.01642 5.59145C1.42351 4.60899 2.02025 3.71639 2.77251 2.96469C3.52476 2.21299 4.4178 1.61692 5.40056 1.21056C6.38332 0.804196 7.43654 0.59551 8.5 0.59643ZM11.8 6.38043C11.7768 6.38664 11.7548 6.39678 11.735 6.41043L8.476 8.39743L8.452 8.40943C8.44786 8.41113 8.44384 8.41313 8.44 8.41543L8.434 8.42143L8.428 8.42743L8.422 8.43343L8.411 8.44543L8.405 8.45043L8.399 8.45643L8.393 8.46843L8.387 8.47443L8.381 8.48043V8.49243L8.375 8.49843L8.369 8.51043L8.363 8.52243V8.53943L8.357 8.54543V8.58143V14.5574C8.357 14.6105 8.37807 14.6613 8.41558 14.6989C8.45309 14.7364 8.50396 14.7574 8.557 14.7574C8.61004 14.7574 8.66091 14.7364 8.69842 14.6989C8.73593 14.6613 8.757 14.6105 8.757 14.5574V8.69343L11.944 6.74743C11.9867 6.72423 12.0195 6.68628 12.0362 6.64068C12.053 6.59507 12.0526 6.54493 12.035 6.49961C12.0175 6.45429 11.9841 6.4169 11.941 6.39442C11.898 6.37193 11.8482 6.36589 11.801 6.37743V6.37943L11.8 6.38043Z" fill="black"/>
</svg>
