<svg width="20" height="20" viewBox="0 0 20 20" fill="none" xmlns="http://www.w3.org/2000/svg">
<path d="M7.27097 0C3.26065 0 0 3.25613 0 7.26129C0 11.2665 3.26065 14.5226 7.27097 14.5226C9.18516 14.5226 10.9194 13.7742 12.2129 12.5845L19.5613 19.9226C19.6129 19.9742 19.6903 20 19.7419 20C19.7935 20 19.871 19.9742 19.9226 19.9226C20.0258 19.8194 20.0258 19.6639 19.9226 19.5613L12.5748 12.1955C13.791 10.9032 14.5155 9.17226 14.5155 7.26C14.5419 3.25548 11.2813 0 7.27097 0ZM12.109 11.9639C12.0832 11.9639 12.0574 11.9897 12.0316 12.0155C12.0052 12.0413 12.0052 12.0671 11.98 12.0929C10.7225 13.3241 9.03085 14.0108 7.27097 14.0045C3.54452 14.0045 0.517419 10.9819 0.517419 7.26129C0.517419 3.54 3.54452 0.516129 7.27097 0.516129C10.9961 0.516129 14.0245 3.53871 14.0245 7.26064C14.0289 9.01881 13.3408 10.708 12.109 11.9626V11.9639Z" fill="black"/>
<path fill-rule="evenodd" clip-rule="evenodd" d="M6.71741 1.93555C6.55741 1.93555 6.4516 2.04135 6.4516 2.20135C6.4516 2.36071 6.55741 2.46651 6.71741 2.46651C9.82321 2.46651 12.3722 4.9891 12.3722 8.12135C12.3722 8.28135 12.4781 8.38716 12.6374 8.38716C12.7974 8.38716 12.9032 8.28135 12.9032 8.12135C12.9019 4.72329 10.1148 1.93555 6.71741 1.93555Z" fill="black"/>
</svg>
