<svg width="20" height="20" viewBox="0 0 20 20" fill="none" xmlns="http://www.w3.org/2000/svg">
<path d="M16.1252 19.9974C15.1574 19.9974 14.133 19.7591 13.073 19.5113C11.9834 19.2574 10.8652 18.9939 9.75823 18.9939C8.6504 18.9939 7.56258 19.2635 6.51041 19.5243C4.3478 20.0617 2.30693 20.5704 0.56084 18.4296L0.434753 18.247L0.467797 18.0383C0.955623 14.7887 2.6191 12.1739 5.14954 10.68L5.4678 10.4922L5.72519 10.7643C6.26928 11.3557 6.92987 11.8281 7.6654 12.1518C8.40094 12.4755 9.1955 12.6435 9.9991 12.6452C11.6156 12.6452 13.1608 11.9652 14.2721 10.7643L14.5252 10.4922L14.8478 10.68C17.3808 12.1783 19.0443 14.7913 19.5321 18.0374L19.5652 18.2609L19.4278 18.4296C19.0427 18.9358 18.5418 19.3423 17.9672 19.6151C17.3925 19.8879 16.7609 20.019 16.1252 19.9974ZM9.76867 18.5591C10.9243 18.5591 12.0704 18.827 13.1782 19.0878C15.5017 19.6313 17.5095 20.1017 19.0991 18.1513L19.1139 18.1339V18.113C18.6452 14.9913 17.0565 12.4948 14.6391 11.0652L14.6078 11.0478L14.5843 11.0739C14.0003 11.7051 13.2924 12.2092 12.5048 12.5545C11.7172 12.8998 10.8669 13.079 10.0069 13.0809C9.14689 13.0792 8.29643 12.9002 7.50869 12.555C6.72096 12.2099 6.01287 11.706 5.42867 11.0748L5.40258 11.0478L5.37214 11.0652C2.94171 12.4948 1.35214 14.9957 0.885188 18.113V18.1357L0.90084 18.153C2.47301 20.0817 4.30171 19.627 6.42084 19.1009C7.48693 18.8357 8.59475 18.5591 9.76867 18.5591ZM9.99736 11.8078C6.80954 11.8078 4.22519 9.16435 4.22519 5.90348C4.22519 2.64261 6.80954 0 9.99736 0C13.1861 0 15.7704 2.64348 15.7704 5.90435C15.7661 9.16348 13.1843 11.8043 9.99736 11.8087V11.8078ZM9.99736 0.437391C7.83475 0.437391 5.88432 1.76957 5.05823 3.81391C4.22954 5.85739 4.6878 8.21043 6.21736 9.77391C6.95592 10.5362 7.90777 11.0572 8.94787 11.2686C9.98797 11.4799 11.0677 11.3718 12.0452 10.9583C14.0434 10.1113 15.3461 8.11652 15.3452 5.90435C15.3426 2.88435 12.9504 0.436522 9.99736 0.432174V0.437391Z" fill="black"/>
</svg>
