<svg width="76" height="51" viewBox="0 0 76 51" fill="none" xmlns="http://www.w3.org/2000/svg">
<path fill-rule="evenodd" clip-rule="evenodd" d="M70.4827 1.03063L28.3311 42.7231L5.87222 20.6763C5.56816 20.3519 5.1954 20.0924 4.77838 19.9146C4.36137 19.7369 3.90954 19.645 3.45254 19.645C2.99554 19.645 2.5437 19.7369 2.12669 19.9146C1.70968 20.0924 1.33691 20.3519 1.03286 20.6763C0.370672 21.3213 0 22.1868 0 23.0881C0 23.9894 0.370672 24.855 1.03286 25.5L25.9058 49.9641C26.5988 50.6547 27.6382 51 28.3255 51C29.3593 51 30.0578 50.66 30.7396 49.9641L74.9644 5.865C75.6283 5.21975 76 4.35305 76 3.45047C76 2.54789 75.6283 1.68119 74.9644 1.03594C73.9362 -0.345313 71.863 -0.345313 70.4827 1.03594V1.03063Z" fill="#DE9200" fill-opacity="0.5"/>
</svg>
